<svg width="50" height="50" viewBox="0 0 50 50" fill="none" xmlns="http://www.w3.org/2000/svg">
<g clip-path="url(#clip0_34_432)">
<path d="M25 0C11.2453 0 0 11.2453 0 25C0 38.7547 11.2453 50 25 50C38.7547 50 50 38.7547 50 25C50 11.2453 38.875 0 25 0ZM36.5 36.125C36.0016 36.8734 35.1234 37.125 34.375 36.6203C28.5 33 21.1266 32.25 12.3703 34.2453C11.5 34.5031 10.75 33.8781 10.4969 33.1203C10.2531 32.25 10.8719 31.5016 11.6203 31.25C21.1266 29.125 29.3781 29.9953 35.8719 34C36.7516 34.375 36.8719 35.375 36.4984 36.125H36.5ZM39.5016 29.2484C38.875 30.1281 37.7516 30.5031 36.8719 29.875C30.1266 25.7484 19.8719 24.5047 12.0031 27.0016C11.0016 27.2453 9.87031 26.75 9.62656 25.7469C9.375 24.7469 9.87031 23.6234 10.8719 23.3719C20.0031 20.6203 31.2484 22.0031 38.9969 26.7484C39.7531 27.1234 40.1281 28.375 39.5016 29.2469V29.2484ZM39.7547 22.25C31.7469 17.4953 18.375 17 10.75 19.3766C9.49844 19.75 8.25156 19.0016 7.87656 17.8703C7.50312 16.625 8.25156 15.3719 9.375 14.9969C18.2547 12.3703 32.8766 12.8734 42.1313 18.3734C43.2547 19 43.6266 20.4984 43.0016 21.6219C42.375 22.5016 40.8766 22.8734 39.7531 22.2484L39.7547 22.25Z" fill="black"/>
</g>
<defs>
<clipPath id="clip0_34_432">
<rect width="50" height="50" fill="white"/>
</clipPath>
</defs>
</svg>
